<svg width="36" height="36" viewBox="0 0 36 36" fill="none" xmlns="http://www.w3.org/2000/svg">
<path d="M8.77539 31.8051V28.4642C8.87714 28.4164 9.14164 28.2586 9.56889 27.9906C9.99639 27.7228 10.4435 27.3481 10.9103 26.8663C11.3768 26.3848 11.7935 25.7838 12.1605 25.0633C12.5278 24.3426 12.7114 23.5211 12.7114 22.5988C12.7114 22.3478 12.6956 22.1033 12.6641 21.8653C12.6326 21.6271 12.5919 21.4074 12.5419 21.2064H8.77539V17.7939H10.8551C10.3599 16.9929 9.88952 16.1407 9.44402 15.2372C8.99827 14.3334 8.77539 13.2216 8.77539 11.9016C8.77539 9.54181 9.59489 7.54244 11.2339 5.90344C12.8726 4.26469 14.8719 3.44531 17.2316 3.44531C19.1084 3.44531 20.7581 3.95819 22.1809 4.98394C23.6036 6.00969 24.63 7.35444 25.26 9.01819L22.0995 10.3419C21.7305 9.30619 21.1081 8.46656 20.2324 7.82306C19.3569 7.17956 18.3566 6.85781 17.2316 6.85781C15.8354 6.85781 14.6458 7.34794 13.6628 8.32819C12.6795 9.30819 12.1879 10.4993 12.1879 11.9016C12.1879 13.0836 12.467 14.0761 13.0253 14.8791C13.5833 15.6821 14.1808 16.6537 14.8178 17.7939H21.1879V21.2064H16.0114C16.0554 21.4074 16.0851 21.6271 16.1006 21.8653C16.1161 22.1033 16.1239 22.3478 16.1239 22.5988C16.1239 23.7891 15.9215 24.8692 15.5168 25.8392C15.1123 26.8094 14.6035 27.6606 13.9905 28.3926H20.9816C21.9219 28.3926 22.644 28.1361 23.148 27.6231C23.6523 27.1101 23.9984 26.4321 24.1864 25.5891L27.2239 26.9822C26.9249 28.4529 26.1843 29.6244 25.002 30.4967C23.8195 31.3689 22.4794 31.8051 20.9816 31.8051H8.77539Z" fill="#414651"/>
</svg>
